<svg width="401" height="92" viewBox="0 0 401 92" fill="none" xmlns="http://www.w3.org/2000/svg">
<path d="M164.003 8.89494V17.4538H155.979H147.955V23.3379V29.2221H155.979H164.003V49.0144V68.8066H169.887H175.771V49.0144V29.2221H187.005H198.238V23.3379V17.4538H187.005H175.771V8.89494V0.336121H169.887H164.003V8.89494Z" fill="#0087F9"/>
<path d="M325.549 1.08545C325.549 1.62038 332.931 16.9193 342.025 35.3207C356.468 64.6347 358.928 68.8071 361.389 69.449C363.422 69.9839 364.812 69.556 366.203 68.1652C367.273 66.9883 375.404 51.3685 384.284 33.181L400.331 0.336555L393.698 0.443542H387.065L375.832 23.5523C369.627 36.2836 364.063 47.41 363.422 48.2659C362.459 49.6567 359.891 45.3773 350.155 25.1571L338.066 0.336555H331.754C328.33 0.336555 325.549 0.657509 325.549 1.08545Z" fill="#0087F9"/>
<path d="M2.02817 19.1655C0.530377 20.5563 0.316406 24.4078 0.316406 44.842V68.8066H6.20059H12.0848V49.0144V29.2221H21.6065C34.9796 29.2221 34.5517 28.4732 34.5517 50.7261V68.8066H40.5428H46.427L46.1061 49.0144L45.7851 29.2221H52.8461C56.8046 29.2221 60.3351 29.757 61.084 30.5059C61.9399 31.3618 62.3678 37.353 62.3678 50.2982V68.8066H68.252H74.1362V49.2283C74.1362 26.9754 73.3873 24.0868 66.0053 19.9144C62.4748 17.8817 60.2281 17.4537 51.4553 17.4537C42.7895 17.4537 40.9708 17.7747 40.9708 19.0585C40.9708 19.9144 40.7568 20.6633 40.5428 20.6633C40.3289 20.6633 38.4031 19.9144 36.3704 19.0585C30.7002 16.7048 4.38184 16.8118 2.02817 19.1655Z" fill="#0087F9"/>
<path d="M94.6786 19.2725C87.7245 22.696 86.4407 25.9056 86.1198 42.0603C85.7988 59.178 86.8687 62.4945 94.4646 66.346C98.637 68.4857 100.884 68.8066 111.796 68.8066H124.42V63.5644V58.3221L112.01 57.8942C96.4973 57.4662 96.6043 57.5732 96.6043 42.9162C96.6043 28.3662 96.8183 28.1523 113.508 28.1523C127.309 28.1523 130.84 29.3291 130.84 34.0365C130.84 39.0648 128.486 39.9206 115.22 39.9206H103.023V45.3769V50.8331L117.894 50.4052L132.872 50.0842L136.617 46.4467C144.962 38.4228 143.036 24.5148 132.872 19.3795C127.737 16.7049 100.028 16.5979 94.6786 19.2725Z" fill="#0087F9"/>
<path d="M215.673 19.4865C212.463 20.9843 210.537 22.803 209.04 25.9056C207.007 29.757 206.793 32.1107 206.793 49.5493V68.8066H212.677H218.561V50.2982C218.561 37.353 218.989 31.3618 219.845 30.5059C220.701 29.6501 225.943 29.2221 236.428 29.2221H251.727V23.3379V17.4537H236C222.734 17.4537 219.417 17.8817 215.673 19.4865Z" fill="#0087F9"/>
<path d="M260.506 36.9251C260.934 59.6059 261.683 62.2805 269.921 66.346C273.986 68.4857 276.34 68.8066 287.252 68.8066H299.877V62.9225V57.0383H287.68C271.419 57.0383 272.06 57.8942 272.06 34.8923V17.4537H266.069H260.078L260.506 36.9251Z" fill="#0087F9"/>
<path d="M306.295 46.4475C306.295 64.314 305.867 76.1894 305.225 77.4732C304.155 79.292 302.871 79.5059 291.317 79.5059H278.479V85.4971V91.4883L292.815 91.0603C308.434 90.7394 310.36 90.0975 315.281 83.3574C317.421 80.5758 317.528 78.757 317.849 48.9082L318.17 17.4545H312.286H306.295V46.4475Z" fill="#0087F9"/>
</svg>
