<svg width="170" height="170" viewBox="0 0 170 170" fill="none" xmlns="http://www.w3.org/2000/svg">
<mask id="mask0_1013_5312" style="mask-type:alpha" maskUnits="userSpaceOnUse" x="0" y="0" width="170" height="170">
<rect width="170" height="170" fill="#D8D8D8"/>
</mask>
<g mask="url(#mask0_1013_5312)">
<circle cx="85" cy="85" r="85" fill="#C4C4C4"/>
<mask id="mask1_1013_5312" style="mask-type:alpha" maskUnits="userSpaceOnUse" x="0" y="-1" width="171" height="171">
<circle cx="85.3258" cy="84.7945" r="85.2047" fill="#0087F9"/>
</mask>
<g mask="url(#mask1_1013_5312)">
<circle cx="85.3258" cy="84.7945" r="85.2047" fill="white"/>
<path opacity="0.45" d="M97.2823 124.712C97.3539 124.582 97.4129 124.444 97.4452 124.3C97.9262 122.137 96.2883 120.045 94.044 120.045L64.2828 120.045C61.4309 120.045 59.7875 116.791 61.4721 114.48L174.872 -46.886C177.132 -49.9865 181.93 -47.6886 181.082 -44.0544C181.048 -43.9074 180.987 -43.7663 180.913 -43.6346L108.041 86.3115C107.968 86.4433 107.907 86.5825 107.873 86.7298C107.385 88.8949 109.023 90.9948 111.272 90.9948H137.913C140.71 90.9948 142.366 94.1395 140.792 96.4618L22.4769 274.956C20.2894 278.183 15.3441 275.928 16.1951 272.232C16.2284 272.088 16.2877 271.949 16.3592 271.819L97.2823 124.712Z" fill="#44CFCB" fill-opacity="0.75"/>
<path opacity="0.55" d="M91.9562 119.385C92.0277 119.255 92.0868 119.118 92.119 118.973C92.6 116.811 90.9622 114.719 88.7178 114.719L58.9566 114.719C56.1047 114.719 54.4613 111.465 56.146 109.154L169.546 -52.2122C171.806 -55.3126 176.604 -53.0148 175.756 -49.3806C175.722 -49.2335 175.661 -49.0925 175.587 -48.9608L102.715 80.9854C102.641 81.1171 102.58 81.2563 102.547 81.4037C102.058 83.5687 103.697 85.6686 105.946 85.6686H132.586C135.384 85.6686 137.04 88.8133 135.466 91.1357L17.1507 269.629C14.9632 272.856 10.0179 270.601 10.8689 266.906C10.9022 266.762 10.9615 266.623 11.033 266.493L91.9562 119.385Z" fill="#44CFCB" fill-opacity="0.75"/>
<path opacity="0.65" d="M86.63 114.059C86.7015 113.929 86.7606 113.792 86.7928 113.647C87.2739 111.484 85.636 109.393 83.3916 109.393L53.6304 109.393C50.7786 109.393 49.1352 106.139 50.8198 103.828L164.219 -57.5384C166.479 -60.6388 171.278 -58.3409 170.43 -54.7068C170.396 -54.5597 170.335 -54.4187 170.261 -54.2869L97.3891 75.6592C97.3153 75.7909 97.2542 75.9302 97.221 76.0775C96.7323 78.2425 98.3707 80.3425 100.62 80.3425H127.26C130.058 80.3425 131.714 83.4871 130.14 85.8095L11.8246 264.303C9.63702 267.53 4.69173 265.275 5.54271 261.58C5.57601 261.435 5.63534 261.296 5.70686 261.166L86.63 114.059Z" fill="#44CFCB" fill-opacity="0.75"/>
<path d="M81.3058 108.735C81.3773 108.605 81.4364 108.468 81.4686 108.323C81.9496 106.16 80.3118 104.069 78.0674 104.069L48.3062 104.069C45.4543 104.069 43.811 100.815 45.4956 98.5038L158.895 -62.8626C161.155 -65.963 165.954 -63.6652 165.106 -60.031C165.072 -59.8839 165.01 -59.7429 164.936 -59.6112L92.0649 70.335C91.9911 70.4667 91.93 70.6059 91.8967 70.7533C91.4081 72.9183 93.0464 75.0182 95.2956 75.0182H121.936C124.734 75.0182 126.39 78.1629 124.815 80.4853L6.50034 258.979C4.3128 262.206 -0.632492 259.951 0.218489 256.256C0.25179 256.111 0.311126 255.972 0.382645 255.842L81.3058 108.735Z" fill="#44CFCB" fill-opacity="0.75"/>
<path d="M75.9796 103.409C76.0511 103.279 76.1102 103.142 76.1424 102.997C76.6235 100.834 74.9856 98.7423 72.7412 98.7423L42.98 98.7424C40.1282 98.7424 38.4848 95.4887 40.1694 93.1776L153.569 -68.1888C155.829 -71.2892 160.628 -68.9913 159.78 -65.3572C159.745 -65.2101 159.684 -65.0691 159.61 -64.9373L86.7387 65.0088C86.6649 65.1405 86.6038 65.2798 86.5706 65.4271C86.0819 67.5921 87.7203 69.6921 89.9694 69.6921H116.61C119.407 69.6921 121.064 72.8367 119.489 75.1591L1.17416 253.653C-1.01337 256.88 -5.95866 254.625 -5.10768 250.93C-5.07438 250.785 -5.01505 250.646 -4.94353 250.516L75.9796 103.409Z" fill="#0087F9"/>
</g>
</g>
</svg>
